<?xml version="1.0" encoding="utf-8"?>
<!-- Generator: Adobe Illustrator 27.5.0, SVG Export Plug-In . SVG Version: 6.00 Build 0)  -->
<svg version="1.1" id="Layer_1" xmlns="http://www.w3.org/2000/svg" xmlns:xlink="http://www.w3.org/1999/xlink" x="0px" y="0px"
	 viewBox="0 0 288 195.36" enable-background="new 0 0 288 195.36" xml:space="preserve">
<g>
	<path fill="#FFDC7D" d="M98.93,56.13c0.46,0,0.92,0.01,1.38,0.02c3.49-12.04,10.66-22.89,20.44-30.85
		c-6.32-5.82-14.76-9.37-24.03-9.37c-19.62,0-35.53,15.91-35.53,35.53c0,7.5,2.32,14.45,6.29,20.18
		C74.75,62.22,86.14,56.13,98.93,56.13z"/>
	<path fill="#F1F2F2" d="M98.93,59.68c1.37,0,2.73,0.08,4.06,0.23c6.09-25.78,29.26-44.97,56.91-44.97
		c32.29,0,58.48,26.18,58.48,58.48c0,32.29-26.18,58.48-58.48,58.48c-12.95,0-50.57,0.07-60.97,0.07
		c-19.96,0-36.14-16.18-36.14-36.14C62.79,75.85,78.97,59.68,98.93,59.68z"/>
</g>
<g>
	<path fill="#F1F2F2" d="M27.03,180.18c-9.36,0-17.09-7.42-17.09-16.87c0-9.54,7.55-16.91,17.05-16.91c4.95,0,9.63,2.12,12.89,5.83
		c0.84,0.93,1.59,1.94,2.08,3.09h-3.67c-2.52-3.75-6.84-5.96-11.35-5.96c-7.51,0-13.73,6.58-13.73,14c0,7.33,6.4,13.87,13.78,13.87
		c4.72,0,8.65-2.47,11.44-6.18h3.67C39.09,176.56,33.35,180.18,27.03,180.18z"/>
	<path fill="#F1F2F2" d="M48.14,152.49v-5.56h3.09v5.56H48.14z M48.14,179.61v-24.16h3.09v24.16H48.14z"/>
	<path fill="#F1F2F2" d="M90.85,179.61v-14c0-4.28-1.81-7.99-6.58-7.99c-4.77,0-6.58,3.71-6.58,7.99v14H74.6v-14
		c0-4.28-1.81-7.99-6.58-7.99c-4.77,0-6.58,3.71-6.58,7.99v14h-3.09v-24.16h3.09v2.78c1.46-2.3,3.93-3.4,6.58-3.4
		c3.44,0,6.45,1.63,8.12,4.64c1.85-2.96,4.59-4.64,8.13-4.64c6.18,0,9.67,4.5,9.67,10.42v14.35H90.85z"/>
	<path fill="#F1F2F2" d="M125.03,168.66h-21.99c0.22,4.77,4.64,8.74,9.36,8.74c3.71,0,7.33-2.12,8.66-5.7h3.27
		c-1.77,5.03-6.54,8.48-11.88,8.48c-6.98,0-12.59-5.7-12.59-12.63c0-6.89,5.61-12.72,12.54-12.72c7.07,0,12.67,5.96,12.67,12.94
		C125.07,168.08,125.03,168.35,125.03,168.66z M112.45,157.62c-4.81,0-8.66,3.53-9.41,8.26h18.86
		C121.1,161.15,117.3,157.62,112.45,157.62z"/>
	<path fill="#F1F2F2" d="M152.81,180.18c-5.79,0-9.98-3.84-10.07-9.71h3.27c0.18,4.02,2.69,6.76,6.8,6.76
		c3.62,0,6.58-2.83,6.58-6.49c0-4.42-3.71-5.92-7.29-6.98c-4.64-1.37-8.48-2.96-8.48-8.61c0-5.17,4.15-8.79,9.19-8.79
		s9.05,3.8,9.05,8.88h-3.27c0-3.18-2.56-5.92-5.78-5.92c-3.27,0-5.92,2.38-5.92,5.7c0,4.37,4.46,5.12,7.77,6.14
		c4.68,1.41,7.99,4.37,7.99,9.45C162.66,176.03,158.2,180.18,152.81,180.18z"/>
	<path fill="#F1F2F2" d="M192.82,168.66h-21.99c0.22,4.77,4.64,8.74,9.36,8.74c3.71,0,7.33-2.12,8.66-5.7h3.27
		c-1.77,5.03-6.54,8.48-11.88,8.48c-6.98,0-12.59-5.7-12.59-12.63c0-6.89,5.61-12.72,12.54-12.72c7.07,0,12.67,5.96,12.67,12.94
		C192.87,168.08,192.82,168.35,192.82,168.66z M180.24,157.62c-4.81,0-8.66,3.53-9.41,8.26h18.86
		C188.89,161.15,185.1,157.62,180.24,157.62z"/>
	<path fill="#F1F2F2" d="M217.03,179.61v-13.29c0-2.3-0.57-4.99-2.3-6.62c-1.41-1.32-3.31-2.08-5.25-2.08
		c-1.94,0-3.84,0.75-5.25,2.08c-1.68,1.59-2.25,4.2-2.25,6.4v13.51h-3.09v-24.16h3.09v3.09h0.09c1.59-2.47,4.55-3.71,7.42-3.71
		c6.93,0,10.64,4.81,10.64,11.48v13.29H217.03z"/>
	<path fill="#F1F2F2" d="M232.75,180.18c-4.33,0-7.42-3.14-7.42-7.46v-0.26h3.09c0.04,2.78,1.37,4.95,4.33,4.95
		c2.74,0,4.5-1.55,4.5-4.33c0-6.4-11.22-3.44-11.22-11.53c0-3.97,2.96-6.71,6.89-6.71c3.71,0,6.58,2.87,6.58,6.58h-3.09
		c-0.13-2.08-1.41-3.8-3.62-3.8c-2.08,0-3.67,1.55-3.67,3.62c0,5.52,11.22,2.65,11.22,11.57
		C240.35,177.44,237.3,180.18,232.75,180.18z"/>
	<path fill="#F1F2F2" d="M269.58,168.66h-21.99c0.22,4.77,4.64,8.74,9.36,8.74c3.71,0,7.33-2.12,8.66-5.7h3.27
		c-1.77,5.03-6.54,8.48-11.88,8.48c-6.98,0-12.59-5.7-12.59-12.63c0-6.89,5.61-12.72,12.54-12.72c7.07,0,12.67,5.96,12.67,12.94
		C269.62,168.08,269.58,168.35,269.58,168.66z M257,157.62c-4.81,0-8.66,3.53-9.41,8.26h18.86
		C265.65,161.15,261.85,157.62,257,157.62z"/>
</g>
</svg>
