<?xml version="1.0" encoding="utf-8"?>
<!-- Generator: Adobe Illustrator 27.5.0, SVG Export Plug-In . SVG Version: 6.00 Build 0)  -->
<svg version="1.1" id="Layer_1" xmlns="http://www.w3.org/2000/svg" xmlns:xlink="http://www.w3.org/1999/xlink" x="0px" y="0px"
	 viewBox="0 0 1000 1000" enable-background="new 0 0 1000 1000" xml:space="preserve">
<path fill="#BFAEB6" d="M679.61,363.14L533.85,217.27c-9.02-9.03-21.02-14-33.79-14h-0.01c-12.76,0-24.76,4.97-33.78,13.99
	L320.4,363.13c-48,48-74.44,111.8-74.44,179.65S272.4,674.4,320.4,722.35c48.01,47.95,111.81,74.37,179.64,74.39
	c0.02,0,0.04,0,0.06,0c67.84,0,131.59-26.42,179.5-74.39c48-48,74.44-111.8,74.44-179.65C754.04,474.85,727.61,411.08,679.61,363.14
	z M658.38,701.13c-43.61,43.67-100.93,65.5-158.29,65.5s-114.76-21.84-158.49-65.51c-42.33-42.28-65.64-98.51-65.64-158.34
	c0-59.83,23.32-116.1,65.65-158.43l145.87-145.87c3.36-3.36,7.82-5.21,12.57-5.21l0,0c4.75,0,9.21,1.85,12.57,5.21l145.76,145.86
	l0.01,0.01c42.33,42.28,65.64,98.51,65.64,158.34C724.04,602.52,700.73,658.79,658.38,701.13z"/>
</svg>
