<?xml version="1.0" encoding="utf-8"?>
<!-- Generator: Adobe Illustrator 27.5.0, SVG Export Plug-In . SVG Version: 6.00 Build 0)  -->
<svg version="1.1" id="Layer_1" xmlns="http://www.w3.org/2000/svg" xmlns:xlink="http://www.w3.org/1999/xlink" x="0px" y="0px"
	 viewBox="0 0 1000 1000" enable-background="new 0 0 1000 1000" xml:space="preserve">
<g>
	<path fill="#CFFCF4" d="M870.16,565.86c-3.64-2.1-7.87-2.66-11.92-1.57l-149.52,40.07l-100.81-58.2l3.92-14.11
		c2.88-10.37,4.34-21.15,4.34-32.04c0-10.88-1.46-21.66-4.34-32.04l-3.92-14.11l100.81-58.2l149.53,40.05
		c8.37,2.24,17-2.74,19.24-11.11c1.09-4.08,0.54-8.31-1.56-11.95c-2.1-3.63-5.49-6.23-9.54-7.32l-119.16-31.92l87.12-50.3
		c3.63-2.1,6.23-5.49,7.32-9.54c1.08-4.04,0.53-8.25-1.54-11.87l-0.05-0.08c-4.33-7.5-13.95-10.08-21.46-5.75l-87.13,50.3
		l31.94-119.16c1.09-4.05,0.53-8.29-1.57-11.92c-2.1-3.63-5.49-6.23-9.54-7.32c-8.39-2.25-17.02,2.73-19.27,11.1l-40.08,149.52
		l-100.85,58.22l-10.27-10.45c-15.31-15.57-34.48-26.65-55.45-32.05l-14.21-3.65V264.05l109.49-109.46c2.97-2.97,4.6-6.91,4.6-11.11
		s-1.63-8.14-4.6-11.11c-6.14-6.15-16.11-6.15-22.23-0.02l-87.24,87.22V118.98c0-8.66-7.05-15.71-15.71-15.71
		c-8.7,0-15.74,7.05-15.74,15.71v100.6l-87.23-87.23c-2.97-2.97-6.91-4.6-11.11-4.6c-4.2,0-8.14,1.63-11.11,4.6
		c-6.14,6.14-6.14,16.11-0.02,22.24l109.46,109.46v116.43l-14.21,3.65c-20.99,5.4-40.16,16.48-55.43,32.04l-10.28,10.45L300,368.4
		l-40.07-149.53c-2.24-8.37-10.87-13.35-19.24-11.11c-8.39,2.25-13.38,10.88-11.14,19.25l31.92,119.15l-87.12-50.29
		c-7.5-4.33-17.13-1.75-21.46,5.75c-2.12,3.67-2.67,7.9-1.59,11.95c1.09,4.05,3.69,7.44,7.32,9.54l87.12,50.3l-119.12,31.93
		c-8.37,2.24-13.35,10.87-11.11,19.24c1.09,4.08,3.69,7.47,7.33,9.57c3.63,2.1,7.87,2.66,11.92,1.57l149.53-40.07l100.81,58.2
		l-3.92,14.11c-2.88,10.37-4.34,21.15-4.34,32.04c0,10.88,1.46,21.66,4.34,32.04l3.92,14.11l-100.81,58.2l-149.53-40.06
		c-8.36-2.24-17,2.74-19.24,11.11c-1.09,4.08-0.54,8.31,1.56,11.95c2.1,3.63,5.49,6.23,9.54,7.32l119.16,31.92l-87.12,50.3
		c-3.63,2.1-6.23,5.49-7.32,9.54c-1.09,4.05-0.53,8.29,1.57,11.92c4.35,7.53,13.97,10.11,21.47,5.78l87.13-50.3L229.58,773
		c-2.24,8.37,2.74,17,11.11,19.24c8.39,2.25,17.02-2.73,19.27-11.1l40.07-149.53l100.85-58.23l10.27,10.45
		c15.29,15.57,34.46,26.65,55.44,32.05l14.21,3.65v116.43L371.33,845.4c-2.97,2.97-4.6,6.91-4.6,11.11s1.63,8.14,4.6,11.11
		c6.14,6.14,16.11,6.14,22.23,0.02l87.22-87.22v100.6c0,8.66,7.05,15.71,15.71,15.71c8.7,0,15.74-7.05,15.74-15.71v-100.6
		l87.25,87.23c6.13,6.12,16.09,6.12,22.21,0c6.15-6.15,6.15-16.11,0.02-22.24L512.23,735.92V619.49l14.21-3.65
		c20.97-5.4,40.14-16.48,55.44-32.05l10.27-10.45l100.82,58.22l40.07,149.53c1.09,4.05,3.69,7.44,7.32,9.54
		c3.62,2.09,7.83,2.65,11.87,1.58l0.08-0.02c4.05-1.09,7.44-3.69,9.54-7.32s2.65-7.87,1.57-11.92l-31.94-119.16l87.13,50.3
		c7.5,4.33,17.13,1.75,21.46-5.75c2.12-3.66,2.67-7.9,1.59-11.95c-1.09-4.05-3.69-7.44-7.32-9.54l-87.12-50.3l119.17-31.92
		c8.36-2.24,13.35-10.87,11.11-19.24l7.52-2.01l-7.52,2.01C876.39,571.35,873.79,567.96,870.16,565.86z M496.52,588.2
		c-48.62,0-88.18-39.56-88.18-88.18s39.56-88.18,88.18-88.18s88.18,39.56,88.18,88.18S545.14,588.2,496.52,588.2z"/>
</g>
</svg>
