<?xml version="1.0" encoding="utf-8"?>
<!-- Generator: Adobe Illustrator 27.5.0, SVG Export Plug-In . SVG Version: 6.00 Build 0)  -->
<svg version="1.1" id="Layer_1" xmlns="http://www.w3.org/2000/svg" xmlns:xlink="http://www.w3.org/1999/xlink" x="0px" y="0px"
	 viewBox="0 0 1000 1000" enable-background="new 0 0 1000 1000" xml:space="preserve">
<g>
	<path fill="#F2EB61" d="M289.45,413.25c15.8-53.52,46.39-102.24,87.81-139.98c-21.15-9.04-44.43-14.06-68.89-14.06
		c-96.84,0-175.35,78.51-175.35,175.35c0,26.86,6.05,52.3,16.84,75.05c7.36-12.72,16.16-24.69,26.35-35.65
		C206.4,441.44,246.14,420.24,289.45,413.25z"/>
</g>
<path fill="#BFAEB6" d="M321.22,783.9c-96.84,0-175.35-78.5-175.35-175.35c0-92.14,71.07-167.68,161.39-174.79
	C337.04,308.93,449.29,216.1,583.24,216.1c156.7,0,283.73,127.03,283.73,283.73S739.94,783.56,583.24,783.56L321.22,783.9z"/>
</svg>
