<?xml version="1.0" encoding="utf-8"?>
<!-- Generator: Adobe Illustrator 27.5.0, SVG Export Plug-In . SVG Version: 6.00 Build 0)  -->
<svg version="1.1" id="Layer_1" xmlns="http://www.w3.org/2000/svg" xmlns:xlink="http://www.w3.org/1999/xlink" x="0px" y="0px"
	 viewBox="0 0 1000 1000" enable-background="new 0 0 1000 1000" xml:space="preserve">
<g>
	<path fill="#CFFCF4" d="M960.34,561.02l-203.58,54.55l-111.7-64.49l2.77-9.99c3.69-13.29,5.56-27.11,5.56-41.07
		s-1.87-27.78-5.56-41.07l-2.77-9.99l111.7-64.49L960.34,439l14.65-54.68l-148.9-39.89l109.78-63.37l-28.31-49.02l-109.78,63.37
		l39.91-148.9l-54.68-14.65l-54.56,203.56l-111.75,64.51l-7.27-7.4c-19.61-19.95-44.19-34.16-71.1-41.09l-10.06-2.59v-129
		L677.31,70.82l-40.02-40.02L528.28,139.79V13.04h-56.61v126.75L362.67,30.79l-40.02,40.02l149.03,149.03v129l-10.06,2.59
		c-26.93,6.92-51.51,21.14-71.09,41.09l-7.27,7.4l-111.73-64.51l-54.55-203.58l-54.68,14.65l39.89,148.9L92.42,232.02l-28.31,49.02
		l109.78,63.37L25,384.31l14.65,54.68l203.58-54.55l111.7,64.49l-2.77,9.99c-3.69,13.29-5.56,27.11-5.56,41.07
		c0,13.96,1.87,27.78,5.56,41.07l2.77,9.99l-111.7,64.49L39.65,561L25,615.68l148.9,39.89L64.12,718.95l28.31,49.02l109.78-63.37
		l-39.89,148.9l54.68,14.65l54.55-203.58l111.75-64.52l7.27,7.4c19.59,19.95,44.17,34.16,71.09,41.09l10.06,2.59v129L322.66,929.15
		l40.02,40.02l108.99-108.99v126.75h56.61V860.18L637.3,969.18l40.02-40.02L528.29,780.12v-129l10.06-2.59
		c26.91-6.92,51.49-21.14,71.09-41.09l7.27-7.4l111.73,64.51l54.55,203.58l54.68-14.65l-39.91-148.9l109.78,63.37l28.31-49.02
		l-109.78-63.37l148.9-39.89L960.34,561.02z M500,596.79c-53.36,0-96.78-43.42-96.78-96.78s43.42-96.78,96.78-96.78
		s96.78,43.42,96.78,96.78S553.37,596.79,500,596.79z"/>
</g>
</svg>
