<?xml version="1.0" encoding="utf-8"?>
<!-- Generator: Adobe Illustrator 27.5.0, SVG Export Plug-In . SVG Version: 6.00 Build 0)  -->
<svg version="1.1" id="Layer_1" xmlns="http://www.w3.org/2000/svg" xmlns:xlink="http://www.w3.org/1999/xlink" x="0px" y="0px"
	 viewBox="0 0 1000 1000" enable-background="new 0 0 1000 1000" xml:space="preserve">
<g>
	<g>
		
			<rect x="241.55" y="748.28" transform="matrix(0.7071 -0.7071 0.7071 0.7071 -499.0809 429.6318)" fill="#F1F2F2" width="55.05" height="137.97"/>
		
			<rect x="513.9" y="748.28" transform="matrix(0.7071 -0.7071 0.7071 0.7071 -419.3089 622.2177)" fill="#F1F2F2" width="55.05" height="137.97"/>
		
			<rect x="813.18" y="749.09" transform="matrix(0.7071 -0.7071 0.7071 0.7071 -331.1252 833.6181)" fill="#F1F2F2" width="55.05" height="134.85"/>
	</g>
	<path fill="#F1F2F2" d="M705.71,335.47c-6.78,0-13.48,0.39-20.06,1.13c-30.1-127.34-144.49-222.11-281.04-222.11
		c-159.49,0-288.79,129.29-288.79,288.79s129.29,288.79,288.79,288.79c63.98,0,249.77,0.35,301.1,0.35
		c98.57,0,178.47-79.9,178.47-178.47C884.18,415.38,804.27,335.47,705.71,335.47z"/>
</g>
</svg>
