<?xml version="1.0" encoding="utf-8"?>
<!-- Generator: Adobe Illustrator 27.5.0, SVG Export Plug-In . SVG Version: 6.00 Build 0)  -->
<svg version="1.1" id="Layer_1" xmlns="http://www.w3.org/2000/svg" xmlns:xlink="http://www.w3.org/1999/xlink" x="0px" y="0px"
	 viewBox="0 0 1000 1000" enable-background="new 0 0 1000 1000" xml:space="preserve">
<g>
	<path fill="#BFAEB6" d="M667.04,492.04c-67.42,0-130.74,26.19-178.29,73.74c-85.9,85.89-225.67,85.89-311.57,0
		c-3.01-3.01-7.01-4.67-11.26-4.67c-4.25,0-8.25,1.66-11.26,4.67s-4.67,7.01-4.67,11.26c0,4.25,1.66,8.25,4.67,11.26
		c47.54,47.55,110.86,73.73,178.29,73.73c67.43,0,130.75-26.19,178.29-73.73c85.9-85.89,225.67-85.89,311.57,0
		c3.01,3.01,7.01,4.67,11.26,4.67c4.25,0,8.25-1.66,11.26-4.67c3.01-3.01,4.67-7.01,4.67-11.26c0-4.25-1.66-8.25-4.67-11.26
		C797.78,518.23,734.46,492.04,667.04,492.04z"/>
	<path fill="#BFAEB6" d="M332.96,507.96c67.44,0,130.76-26.19,178.29-73.73c85.9-85.89,225.67-85.89,311.57,0
		c3.01,3.01,7.01,4.67,11.26,4.67c4.25,0,8.25-1.66,11.26-4.67s4.67-7.01,4.67-11.26c0-4.25-1.66-8.25-4.67-11.26
		c-47.55-47.55-110.87-73.74-178.29-73.74c-67.42,0-130.74,26.19-178.29,73.74c-85.9,85.89-225.67,85.89-311.57,0
		c-3.01-3.01-7.01-4.67-11.26-4.67c-4.25,0-8.25,1.66-11.26,4.67c-3.01,3.01-4.67,7.01-4.67,11.26c0,4.25,1.66,8.25,4.67,11.26
		C202.22,481.78,265.53,507.96,332.96,507.96z"/>
</g>
</svg>
