<?xml version="1.0" encoding="utf-8"?>
<!-- Generator: Adobe Illustrator 27.5.0, SVG Export Plug-In . SVG Version: 6.00 Build 0)  -->
<svg version="1.1" id="Layer_1" xmlns="http://www.w3.org/2000/svg" xmlns:xlink="http://www.w3.org/1999/xlink" x="0px" y="0px"
	 viewBox="0 0 1000 1000" enable-background="new 0 0 1000 1000" xml:space="preserve">
<g>
	<path fill="#CFFCF4" d="M780.53,537.18l-124.06,33.24l-68.07-39.3l1.69-6.09c2.25-8.1,3.39-16.52,3.39-25.03
		s-1.14-16.93-3.39-25.03l-1.69-6.09l68.07-39.3l124.06,33.24l8.93-33.32l-90.74-24.31l66.9-38.62l-17.25-29.87l-66.9,38.62
		l24.32-90.74l-33.32-8.93L639.22,399.7l-68.1,39.31l-4.43-4.51c-11.95-12.16-26.93-20.82-43.33-25.04l-6.13-1.58v-78.61
		l90.82-90.82l-24.39-24.39l-66.43,66.42v-77.24h-34.5v77.24l-66.42-66.42l-24.39,24.39l90.82,90.82v78.61l-6.13,1.58
		c-16.41,4.22-31.39,12.88-43.32,25.04l-4.43,4.51l-68.09-39.31l-33.24-124.06l-33.32,8.93l24.31,90.74l-66.9-38.62l-17.25,29.87
		l66.9,38.62l-90.74,24.31l8.93,33.32l124.06-33.24l68.07,39.3l-1.69,6.09c-2.25,8.1-3.39,16.52-3.39,25.03s1.14,16.93,3.39,25.03
		l1.69,6.09l-68.07,39.3l-124.06-33.24l-8.93,33.32l90.74,24.31l-66.9,38.62l17.25,29.87l66.9-38.62l-24.31,90.74l33.32,8.93
		l33.24-124.06l68.1-39.32l4.43,4.51c11.94,12.16,26.92,20.82,43.32,25.04l6.13,1.58v78.61l-90.82,90.82l24.39,24.39l66.42-66.42
		v77.24h34.5v-77.24l66.43,66.42l24.39-24.39l-90.82-90.82v-78.61l6.13-1.58c16.4-4.22,31.38-12.88,43.32-25.04l4.43-4.51
		l68.09,39.31l33.24,124.06l33.32-8.93l-24.32-90.74l66.9,38.62l17.25-29.87l-66.9-38.62l90.74-24.31L780.53,537.18z M500,558.98
		c-32.52,0-58.98-26.46-58.98-58.98s26.46-58.98,58.98-58.98c32.52,0,58.98,26.46,58.98,58.98S532.52,558.98,500,558.98z"/>
</g>
</svg>
