<?xml version="1.0" encoding="utf-8"?>
<!-- Generator: Adobe Illustrator 27.5.0, SVG Export Plug-In . SVG Version: 6.00 Build 0)  -->
<svg version="1.1" id="Layer_1" xmlns="http://www.w3.org/2000/svg" xmlns:xlink="http://www.w3.org/1999/xlink" x="0px" y="0px"
	 viewBox="0 0 1000 1000" enable-background="new 0 0 1000 1000" xml:space="preserve">
<g>
	<path fill="#F1F2F2" d="M679.97,707.86c98.57,0,178.47-79.9,178.47-178.47c0-93.78-72.34-170.67-164.26-177.91
		c-30.3-127.06-144.56-221.54-280.9-221.54c-159.49,0-288.79,129.29-288.79,288.79s129.29,288.79,288.79,288.79"/>
	<g>
		
			<rect x="209.2" y="763.73" transform="matrix(0.7071 -0.7071 0.7071 0.7071 -519.4838 411.2886)" fill="#F1F2F2" width="55.05" height="137.97"/>
		
			<rect x="481.56" y="763.73" transform="matrix(0.7071 -0.7071 0.7071 0.7071 -439.7124 603.8738)" fill="#F1F2F2" width="55.05" height="137.97"/>
		
			<rect x="780.84" y="764.54" transform="matrix(0.7071 -0.7071 0.7071 0.7071 -351.5235 815.2794)" fill="#F1F2F2" width="55.05" height="134.85"/>
	</g>
</g>
</svg>
