<?xml version="1.0" encoding="utf-8"?>
<!-- Generator: Adobe Illustrator 27.5.0, SVG Export Plug-In . SVG Version: 6.00 Build 0)  -->
<svg version="1.1" id="Layer_1" xmlns="http://www.w3.org/2000/svg" xmlns:xlink="http://www.w3.org/1999/xlink" x="0px" y="0px"
	 viewBox="0 0 1000 1000" enable-background="new 0 0 1000 1000" xml:space="preserve">
<g display="none">
	<path display="inline" opacity="0.3" fill="#BFAEB6" enable-background="new    " d="M174.61,438.62h-34.25
		c-6.31,0-11.42,5.11-11.42,11.42s5.11,11.42,11.42,11.42h34.25c6.31,0,11.42-5.11,11.42-11.42S180.92,438.62,174.61,438.62z
		 M223.25,320.73c4.46,4.46,11.69,4.46,16.15,0c4.46-4.46,4.46-11.69,0-16.15l-22.79-22.79c-4.46-4.46-11.69-4.46-16.15,0
		c-4.46,4.46-4.46,11.69,0,16.14L223.25,320.73z M368.7,267.37c6.31,0,11.42-5.11,11.42-11.42V221.7c0-6.31-5.11-11.42-11.42-11.42
		s-11.42,5.11-11.42,11.42v34.25C357.29,262.25,362.4,267.37,368.7,267.37z M464.68,337.17c-25.9-22.06-59.3-35.55-95.98-35.55
		c-81.97,0-148.42,66.45-148.42,148.42c0,36.52,13.4,69.77,35.29,95.61c0.6,1.13,1.48,2.11,2.48,3.01c0.13,0.14,0.24,0.3,0.37,0.44
		l0.01-0.01c0.09,0.07,0.12,0.17,0.21,0.24c5,3.85,12.16,2.91,16.01-2.08c3.74-4.86,2.89-11.73-1.76-15.64l0.22-0.27
		c-18.66-21.92-29.99-50.28-29.99-81.32c0-69.36,56.23-125.59,125.59-125.59c31.83,0,60.81,11.94,82.94,31.46l0.29-0.31
		c4.51,4.21,11.56,4.11,15.9-0.31c4.42-4.5,4.35-11.73-0.15-16.14C466.79,338.25,465.74,337.69,464.68,337.17z M223.25,579.33
		l-22.79,22.79c-4.46,4.46-4.46,11.69,0,16.15s11.69,4.46,16.15,0l22.79-22.79c4.46-4.46,4.46-11.69,0-16.14
		C234.94,574.87,227.71,574.87,223.25,579.33z M536.94,281.78c-4.46-4.46-11.69-4.46-16.15,0L498,304.57
		c-4.46,4.46-4.46,11.69,0,16.15s11.69,4.46,16.15,0l22.79-22.8C541.4,293.47,541.4,286.24,536.94,281.78z"/>
	<g display="inline">
		<path fill="#BFAEB6" d="M730.43,473.27c-28.72-67.35-95.51-114.56-173.34-114.56c-102.12,0-185.06,81.31-188.09,182.69
			c-0.1,0-0.19-0.01-0.29-0.01c-63.05,0-114.17,51.12-114.17,114.17s51.12,114.17,114.17,114.17v-0.02h353.93v0.02
			c81.97,0,148.42-66.45,148.42-148.42C871.06,541.96,808.75,477.35,730.43,473.27z"/>
		<path fill="#BFAEB6" d="M588.33,558.56c-0.13,0.22-0.34,0.35-0.45,0.58c-2.79,5.66-0.47,12.5,5.19,15.29
			c5.48,2.71,12.02,0.54,14.96-4.75l0.25,0.13c19.67-43.64,63.39-74.1,114.36-74.1v-22.83C663.12,472.87,611.98,508,588.33,558.56z"
			/>
	</g>
</g>
<g>
	<path fill="#FFDC7D" enable-background="new    " d="M298.23,414.52c2.27,0,4.55,0.04,6.84,0.12
		c17.23-59.44,52.66-113.03,100.95-152.38C374.79,233.54,333.11,216,287.33,216c-96.9,0-175.45,78.55-175.45,175.45
		c0,37.02,11.48,71.36,31.05,99.66C178.79,444.57,235.07,414.52,298.23,414.52z"/>
	<path fill="#F1F2F2" d="M298.23,432.02c6.78,0,13.48,0.39,20.06,1.13c30.1-127.34,144.49-222.11,281.04-222.11
		c159.49,0,288.79,129.29,288.79,288.79c0,159.49-129.29,288.79-288.79,288.79c-63.98,0-249.76,0.35-301.1,0.35
		c-98.57,0-178.47-79.9-178.47-178.47C119.76,511.92,199.67,432.02,298.23,432.02z"/>
</g>
</svg>
