<?xml version="1.0" encoding="utf-8"?>
<!-- Generator: Adobe Illustrator 27.5.0, SVG Export Plug-In . SVG Version: 6.00 Build 0)  -->
<svg version="1.1" id="Layer_1" xmlns="http://www.w3.org/2000/svg" xmlns:xlink="http://www.w3.org/1999/xlink" x="0px" y="0px"
	 viewBox="0 0 1000 1000" enable-background="new 0 0 1000 1000" xml:space="preserve">
<path opacity="0.6" fill="#F1F2F2" enable-background="new    " d="M757.26,349.96c-5.11,0-10.14,0.29-15.1,0.85
	c-22.65-95.84-108.76-167.17-211.52-167.17c-120.04,0-217.35,97.31-217.35,217.35s97.3,217.35,217.34,217.35
	c48.15,0,187.99,0.27,226.63,0.27c74.18,0,134.33-60.14,134.33-134.33C891.59,410.1,831.45,349.96,757.26,349.96z"/>
<path fill="#F1F2F2" d="M650.14,402.56c-6.72,0-13.35,0.39-19.88,1.12c-29.82-126.16-143.15-220.04-278.42-220.04
	c-158.01,0-286.09,128.09-286.09,286.09s128.09,286.1,286.09,286.1c63.38,0,247.44,0.35,298.29,0.35
	c97.65,0,176.81-79.16,176.81-176.81C826.95,481.72,747.79,402.56,650.14,402.56z"/>
</svg>
